HIERARCHY
ROOT HipCenter
{
    OFFSET 0.0 0.0 -0.0
    CHANNELS 6 Xposition Yposition Zposition Zrotation Xrotation Yrotation
    JOINT Spine
    {
        OFFSET 0.0 11.586409568786621 0.0
        CHANNELS 3 Zrotation Xrotation Yrotation
        JOINT ShoulderCenter
        {
            OFFSET 0.0 32.490726470947266 0.0
            CHANNELS 3 Zrotation Xrotation Yrotation
            JOINT LeftShoulder
            {
                OFFSET 21.936573028564453 0.0 0.0
                CHANNELS 3 Zrotation Xrotation Yrotation
                JOINT LeftElbow
                {
                    OFFSET 28.045602798461914 0.0 0.0
                    CHANNELS 3 Zrotation Xrotation Yrotation
                    JOINT LeftWrist
                    {
                        OFFSET 28.39161491394043 0.0 0.0
                        CHANNELS 3 Zrotation Xrotation Yrotation
                        JOINT LeftHand
                        {
                            OFFSET 3.5577712059020996 0.0 0.0
                            CHANNELS 3 Zrotation Xrotation Yrotation
                            End Site
                            {
                                OFFSET 1.4231085777282715 0.0 0.0
                            }
                        }
                    }
                }
            }
            JOINT RightShoulder
            {
                OFFSET -21.936573028564453 0.0 0.0
                CHANNELS 3 Zrotation Xrotation Yrotation
                JOINT RightElbow
                {
                    OFFSET -28.045602798461914 0.0 0.0
                    CHANNELS 3 Zrotation Xrotation Yrotation
                    JOINT RightWrist
                    {
                        OFFSET -28.39161491394043 0.0 0.0
                        CHANNELS 3 Zrotation Xrotation Yrotation
                        JOINT RightHand
                        {
                            OFFSET -3.5577712059020996 0.0 0.0
                            CHANNELS 3 Zrotation Xrotation Yrotation
                            End Site
                            {
                                OFFSET -1.4231085777282715 0.0 0.0
                            }
                        }
                    }
                }
            }
            End Site
            {
                OFFSET 0.0 12.996288299560547 0.0
            }
        }
    }
    JOINT LeftHip
    {
        OFFSET 13.320082664489746 0.0 0.0
        CHANNELS 3 Zrotation Xrotation Yrotation
        JOINT LeftKnee
        {
            OFFSET 0.0 -38.6229362487793 0.0
            CHANNELS 3 Zrotation Xrotation Yrotation
            JOINT LeftAnkle
            {
                OFFSET 0.0 -39.45588684082031 0.0
                CHANNELS 3 Zrotation Xrotation Yrotation
                JOINT LeftFoot
                {
                    OFFSET 0.0 -11.922098159790039 0.0
                    CHANNELS 3 Zrotation Xrotation Yrotation
                    End Site
                    {
                        OFFSET 0.0 0.0 4.768839359283447
                    }
                }
            }
        }
    }
    JOINT RightHip
    {
        OFFSET -13.320082664489746 0.0 0.0
        CHANNELS 3 Zrotation Xrotation Yrotation
        JOINT RightKnee
        {
            OFFSET 0.0 -38.6229362487793 0.0
            CHANNELS 3 Zrotation Xrotation Yrotation
            JOINT RightAnkle
            {
                OFFSET 0.0 -39.45588684082031 0.0
                CHANNELS 3 Zrotation Xrotation Yrotation
                JOINT RightFoot
                {
                    OFFSET 0.0 -11.922098159790039 0.0
                    CHANNELS 3 Zrotation Xrotation Yrotation
                    End Site
                    {
                        OFFSET 0.0 0.0 4.768839359283447
                    }
                }
            }
        }
    }
}
MOTION
Frames: 4
Frame Time: 0.03333333333333333
-28.899999618530273 -5.900000095367432 11.699999809265137 5.957134704718108 4.9430416028252715 102.98685426184778 -0.535931468566331 10.88547464455234 1.0087582411229512 -2.9893270413171855e-07 -2.27691209724013e-07 1.8703740059366567 90.14630921014611 1.1977364995943378 177.9341337123741 -1.1862004657355705e-06 2.6773345373970797e-06 32.1998202829828 1.7725430102803788e-06 -50.7709585789916 29.135800176887766 0.0 -6.3611093629270335e-15 0.0 -91.02695717322293 24.19355488887308 -179.33646022422312 1.203134060221589e-08 2.124735574346267e-06 -22.576329726218656 179.99999984584684 -47.17110210431589 146.05429287865968 -1.5902773407317588e-15 -1.3241718894150476e-31 9.541664044390553e-15 11.799327128239089 -2.5475633853743926 -33.7464003924798 -27.061962312958265 23.42939513105699 -11.576922441855801 65.63700739152158 -17.790112250133333 91.58982390279988 4.4139062980501586e-32 6.3611093629270335e-15 -7.951386703658792e-16 -2.795747936314213 3.8039242371695408 40.834410958158216 19.669335570621136 18.550329215946295 10.927198627233993 -96.39185148560546 -12.829131487411093 -162.9195659036334 0.0 0.0 -1.5902773407317582e-15
-28.299999237060547 -5.600000381469727 11.5 5.957125187613649 4.450826940933937 102.22814935254128 0.10586587831993124 10.526667028050458 1.0021482486356423 1.1263213577640069e-08 6.44345504428523e-08 1.6167229875721592 89.82869023700482 2.875548688814962 177.22446484032048 5.935490225529067e-08 -1.0005667825732903e-06 32.35074153895548 4.916888747346725e-06 -48.372967480982176 24.53951562149765 -6.3611093629270335e-15 6.3611093629270335e-15 3.531125038440127e-31 -91.65557156707217 22.598566875338253 -178.78760328885795 4.764217221029881e-06 7.606843378740698e-07 -22.899122065120313 179.99999874879663 -47.027165782199745 145.3672207577062 9.54166404439055e-15 6.3611093629270335e-15 -1.5902773407317592e-15 11.83133509448666 -2.5249397915904987 -33.29081743931937 -20.38391268666438 19.810204225206334 -12.62372854465048 72.37053621673238 -18.70461887289648 127.06365724554423 -1.5902773407317584e-15 0.0 0.0 -2.0715594064689853 4.992461318811716 42.11305745109364 18.11878422358665 17.458241171616663 10.712406527667289 -96.77811434103133 -12.318918942782608 -164.38800751745526 -6.3611093629270335e-15 7.951386703658791e-16 1.5902773407317584e-15
-27.599998474121094 -5.299999713897705 10.800000190734863 6.449541151796751 3.9542743234384696 101.07966830280122 1.036583577710586 10.976617549114989 0.807375756740955 2.8945276422535117e-07 -6.754390756903844e-07 1.5827723479026867 89.5558923367178 3.088670520322416 176.9053408958273 -3.9078872625269155e-06 2.5061477431928106e-06 31.147540701958306 6.174305965611054e-07 -46.51653981605729 23.536813242905183 0.0 0.0 0.0 -92.38855850035263 21.24886485073337 -178.81655566622857 -3.864188924375857e-06 1.7089470540909812e-06 -23.340248002322895 -179.99999083600602 -43.972925797703645 145.95217869501394 6.3611093629270335e-15 -1.7655625192200634e-31 -3.1805546814635168e-15 11.388844439378865 -1.8287271210129001 -32.15300780712137 -13.166485093783677 16.71605118542428 -13.988594070925746 77.72329801323919 -22.032971734210996 143.10661018992457 -1.1927080055488192e-15 -3.310429723537619e-32 3.1805546814635176e-15 -1.9197862567267785 6.793651480123318 42.01441578219165 16.19427252207007 15.969257540948911 10.360265307179022 -96.0897033920818 -14.638280701754622 -162.21773090528688 -4.4139062980501586e-32 -1.5902773407317584e-15 -3.1805546814635168e-15
-26.899999618530273 -5.299999713897705 9.700000762939453 5.957125675893131 3.4645062482313893 100.90052488522753 1.3120519250484486 10.065329782894816 0.48799345528234495 2.0024231273992907e-07 9.822559252518486e-08 0.8393469899170393 89.13167184237375 5.3844220258500055 176.43267350065574 -1.694242761571568e-06 1.8900218532612644e-06 29.004787221432462 -1.8264365835800094e-06 -43.062256421020365 23.668151343214586 0.0 0.0 0.0 -92.54445627674997 21.614504799732057 -179.32011230389432 -1.0832912844310307e-06 2.0149714528127272e-06 -23.101085150165652 -179.99999412600016 -45.69288587776953 145.8360001926296 1.5902773407317584e-15 -2.2069531490250793e-32 -1.5902773407317584e-15 10.957271565598512 -3.520866090813223 -31.283514694724097 -10.391909010831935 16.478768216951256 -15.972623495204736 82.38324927117395 -27.34108313971773 147.04292072227122 7.95138670365879e-15 0.0 0.0 -2.1612128963521395 7.868543144626999 42.061598406118144 14.61339487341127 14.123868244934583 9.160253320200436 -95.62855222320842 -16.088373776827346 -160.43734948329566 2.2069531490250793e-32 -1.5902773407317584e-15 1.5902773407317584e-15
